<svg width="1920" height="1080" viewBox="0 0 1920 1080" fill="none" xmlns="http://www.w3.org/2000/svg">
<path fill-rule="evenodd" clip-rule="evenodd" d="M1920 -54.3636H841.125C899.05 59.0274 1051.18 96.4731 1134.42 81.8568C1241.06 63.161 1311.49 112.873 1328.03 242.555C1364.2 526.424 1677.98 641.139 1920 506.999V-54.3636Z" fill="#FBFBFB"/>
<path fill-rule="evenodd" clip-rule="evenodd" d="M888.756 -54.3636C851.877 167.339 592.891 133.054 456.076 97.1485C259.392 45.5458 188.688 147.644 237.129 284.485C296.459 452.127 131.519 584.133 0 553.765V-54.3636H888.756Z" fill="#F4F4F4"/>
<path fill-rule="evenodd" clip-rule="evenodd" d="M1920 622.308C1796.75 580.512 1626.51 647.758 1585.01 802.404C1560.1 895.262 1461.09 925.413 1408.94 889.264C1263.02 788.139 1125.53 849.36 1114.35 980.366C1107.24 1063.69 1038.48 1107.83 973.697 1075.68C871.464 1024.94 817.673 1078.92 821.267 1134.36H1920V622.308Z" fill="#F2F2F2"/>
<path fill-rule="evenodd" clip-rule="evenodd" d="M0 1134.34H1419.21C1382.74 886.049 1142.77 817.02 921.555 906.258C813.621 949.809 731.921 942.001 674.024 841.741C487.903 519.426 186.121 537.663 0 685.609V1134.36V1134.34Z" fill="#F4F4F4"/>
<path fill-rule="evenodd" clip-rule="evenodd" d="M1317.71 1134.34C1416.29 1085.68 1509.88 995.468 1646.64 864.354C1743.2 771.766 1841.11 761.608 1920 796.947V1134.34H1317.71Z" fill="#F8F8F8"/>
<path fill-rule="evenodd" clip-rule="evenodd" d="M1706.94 -54.3636H1563.54C1448.55 15.4757 1402.54 252.497 1658.37 474.497C1739.47 544.877 1823.93 584.484 1920 594.642V137.296C1876.48 121.059 1826.71 95.1763 1795.21 40.6287C1768.65 -5.3545 1738.23 -36.1811 1706.92 -54.3636H1706.94Z" fill="#F4F4F4"/>
<path fill-rule="evenodd" clip-rule="evenodd" d="M0 1134.34H1052.53C1035.7 1027.4 953.732 916.93 807.461 1001.36C671.781 1079.68 586.488 1033.32 523.646 924.44C370.54 659.294 153.106 643.462 0 765.174V1134.36V1134.34Z" fill="#FBFBFB"/>
</svg>
