<svg width="1920" height="1100" viewBox="0 0 1920 1100" fill="none" xmlns="http://www.w3.org/2000/svg">
<g clip-path="url(#clip0_299_2546)">
<g opacity="0.8">
<path d="M622.253 141.576L-655.804 880.556C-684.998 896.785 -694.73 933.572 -677.43 962.785C-661.211 991.998 -624.447 1001.74 -595.253 984.424L682.804 245.444C711.998 229.215 721.73 192.428 704.429 163.215C688.21 134.002 651.447 124.265 622.253 141.576Z" fill="#27C7FF"/>
<path d="M445.381 483.65L520.877 440.123C525.779 437.261 527.438 431.011 524.648 426.116C521.782 421.221 515.522 419.564 510.619 422.35L435.123 465.877C430.221 468.739 428.562 474.989 431.352 479.884C434.218 484.779 440.478 486.436 445.381 483.65Z" fill="#27C7FF"/>
<path d="M207.683 220.692L397.435 111.092C409.806 103.948 413.988 88.2657 406.844 75.8943C399.7 63.523 384.018 59.3411 371.647 66.4851L181.894 176.085C169.523 183.229 165.341 198.911 172.485 211.282C179.629 223.654 195.311 227.836 207.683 220.692Z" fill="#27C7FF"/>
<path d="M249.117 743.512L400.361 656.216C408.377 651.511 411.165 641.405 406.46 633.39C401.755 625.374 391.649 622.587 383.634 627.291L232.39 714.588C224.374 719.292 221.587 729.398 226.291 737.414C230.996 745.429 241.102 748.217 249.117 743.512Z" fill="#393939"/>
<path d="M394.117 1046.51L545.361 959.216C553.377 954.511 556.165 944.405 551.46 936.39C546.755 928.374 536.649 925.587 528.634 930.291L377.39 1017.59C369.374 1022.29 366.587 1032.4 371.291 1040.41C375.996 1048.43 386.102 1051.22 394.117 1046.51Z" fill="#27C7FF"/>
<path d="M-79.7995 1158.16L59.2477 1077.83C66.5659 1073.65 69.1796 1064.24 64.8235 1056.75C60.6416 1049.43 51.2324 1046.81 43.7399 1051L-95.3073 1131.32C-102.626 1135.5 -105.239 1144.91 -100.883 1152.41C-96.7012 1159.72 -87.292 1162.34 -79.7995 1157.98V1158.16Z" fill="#393939"/>
<path d="M721.624 535.118L927.581 416.109C932.285 413.495 933.853 407.571 931.066 402.866C928.452 398.161 922.528 396.593 917.823 399.381L711.866 518.39C707.161 521.004 705.593 526.928 708.381 531.633C710.995 536.337 716.919 537.906 721.624 535.118Z" fill="#1C93BC"/>
<path d="M-63.3763 968.118L142.581 849.109C147.285 846.495 148.854 840.571 146.066 835.866C143.452 831.161 137.528 829.593 132.823 832.381L-73.134 951.39C-77.8386 954.004 -79.4068 959.928 -76.6189 964.633C-74.0052 969.337 -68.0809 970.906 -63.3763 968.118Z" fill="#1C93BC"/>
<path d="M1016.45 1025.08L1222.41 906.07C1227.11 903.456 1228.68 897.532 1225.89 892.827C1223.28 888.297 1217.35 886.555 1212.65 889.343L1006.87 1008.35C1002.16 1010.97 1000.59 1016.89 1003.38 1021.59C1005.99 1026.3 1011.92 1027.87 1016.62 1025.08H1016.45Z" fill="#27C7FF"/>
<path d="M571.404 248.441L794.437 121.417C797.05 119.849 797.921 116.538 796.527 113.75C794.959 111.137 791.649 110.266 788.861 111.659L565.828 238.684C563.214 240.252 562.169 243.563 563.737 246.35C565.305 248.964 568.616 249.835 571.404 248.441Z" fill="#1C93BC"/>
<path d="M1609.4 137.441L1832.44 10.4172C1835.05 8.84897 1835.92 5.53831 1834.53 2.7504C1832.96 0.136731 1829.65 -0.73449 1826.86 0.659466L1603.83 127.684C1601.21 129.252 1600.17 132.563 1601.74 135.35C1603.31 137.964 1606.62 138.835 1609.4 137.441Z" fill="#1C93BC"/>
<path d="M1264.4 1005.44L1487.44 878.417C1490.05 876.849 1490.92 873.538 1489.53 870.75C1487.96 868.137 1484.65 867.266 1481.86 868.659L1258.83 995.684C1256.21 997.252 1255.17 1000.56 1256.74 1003.35C1258.31 1005.96 1261.62 1006.84 1264.4 1005.44Z" fill="#1C93BC"/>
<path d="M1487.4 700.441L1710.44 573.417C1713.05 571.849 1713.92 568.538 1712.53 565.75C1710.96 563.137 1707.65 562.266 1704.86 563.659L1481.83 690.684C1479.21 692.252 1478.17 695.563 1479.74 698.35C1481.31 700.964 1484.62 701.835 1487.4 700.441Z" fill="#1C93BC"/>
<path d="M-21.5964 455.441L201.437 328.417C204.05 326.849 204.921 323.538 203.527 320.75C201.959 318.137 198.649 317.266 195.861 318.659L-27.1723 445.858C-29.7859 447.426 -30.8314 450.737 -29.2632 453.525C-27.695 456.138 -24.3843 457.01 -21.5964 455.616V455.441Z" fill="#393939"/>
<path d="M638.965 134.287C638.965 139.689 634.609 143.871 629.381 143.871C624.154 143.871 619.624 139.515 619.624 134.287C619.624 129.06 623.98 124.53 629.381 124.53C634.783 124.53 638.965 128.886 638.965 134.287Z" fill="#393939"/>
<path d="M326 229.447C326 225.962 328.962 223 332.447 223C335.932 223 338.894 225.962 338.894 229.447C338.894 232.932 335.932 235.894 332.447 235.894C328.962 235.894 326 232.932 326 229.447Z" fill="#393939"/>
<path d="M67 687.447C67 683.962 69.7879 681 73.447 681C77.1062 681 79.8941 683.962 79.8941 687.447C79.8941 690.932 76.9319 693.894 73.447 693.894C69.9622 693.894 67 690.932 67 687.447Z" fill="#393939"/>
<path d="M271 590.583C271 585.182 275.356 581 280.758 581C286.159 581 290.341 585.356 290.341 590.583C290.341 595.811 285.985 600.167 280.758 600.167C275.53 600.167 271 595.811 271 590.583Z" fill="#393939"/>
<path d="M736 837.03C736 828.144 743.318 821 752.205 821C761.091 821 768.235 828.144 768.235 837.03C768.235 845.917 761.091 853.061 752.205 853.061C743.318 853.061 736 845.917 736 837.03Z" fill="#27C7FF"/>
<path d="M478 647.788C478 633.5 489.5 622 503.788 622C518.076 622 529.576 633.5 529.576 647.788C529.576 662.076 518.076 673.576 503.788 673.576C489.5 673.576 478 662.076 478 647.788Z" fill="#1C93BC"/>
<path d="M1011 1102C1011 1093.14 1018.14 1086 1027 1086C1035.86 1086 1043 1093.14 1043 1102C1043 1110.86 1035.86 1118 1027 1118C1018.14 1118 1011 1110.86 1011 1102Z" fill="#1C93BC"/>
<path d="M835 946C835 941.568 838.568 938 843 938C847.432 938 851 941.568 851 946C851 950.432 847.432 954 843 954C838.568 954 835 950.432 835 946Z" fill="#393939"/>
<path d="M-50.1831 220.693L41.6438 168.768C49.659 164.063 52.4469 153.957 47.7423 145.942C43.0377 137.926 32.9315 135.138 24.9163 139.843L-66.9106 191.768C-74.9258 196.473 -77.7137 206.579 -73.0091 214.594C-68.4788 222.609 -58.1984 225.397 -50.1831 220.693Z" fill="#1C93BC"/>
<path d="M634 1044C634 1051.76 627.757 1058 620 1058C612.243 1058 606 1051.76 606 1044C606 1036.24 612.243 1030 620 1030C627.757 1030 634 1036.24 634 1044Z" fill="#27C7FF"/>
<path d="M1762.58 738.788C1762.58 753.076 1751.08 764.576 1736.79 764.576C1722.5 764.576 1711 753.076 1711 738.788C1711 724.5 1722.5 713 1736.79 713C1751.08 713 1762.58 724.5 1762.58 738.788Z" fill="#27C7FF"/>
<path d="M265.576 921.788C265.576 936.076 254.076 947.576 239.788 947.576C225.5 947.576 214 936.076 214 921.788C214 907.5 225.5 896 239.788 896C254.076 896 265.576 907.5 265.576 921.788Z" fill="#27C7FF"/>
<path d="M1152.26 109.124L977.837 209.838C966.511 216.459 962.677 230.921 969.124 242.247C975.746 253.573 990.208 257.406 1001.53 250.959L1175.95 150.246C1187.28 143.625 1191.11 129.162 1184.66 117.837C1178.04 106.511 1163.58 102.677 1152.26 109.124Z" fill="#27C7FF"/>
<path d="M1639.26 1052.12L1464.84 1152.84C1453.51 1159.46 1449.68 1173.92 1456.12 1185.25C1462.75 1196.57 1477.21 1200.41 1488.53 1193.96L1662.95 1093.25C1674.28 1086.62 1678.11 1072.16 1671.66 1060.84C1665.04 1049.51 1650.58 1045.68 1639.26 1052.12Z" fill="#27C7FF"/>
<path d="M1446.65 357.485L1256.89 467.085C1244.52 474.229 1240.34 489.911 1247.49 502.282C1254.63 514.654 1270.31 518.836 1282.68 511.692L1472.43 402.092C1484.81 394.948 1488.99 379.266 1481.84 366.894C1474.7 354.523 1459.02 350.341 1446.65 357.485Z" fill="#27C7FF"/>
<path d="M1287.63 664.291L1136.39 751.588C1128.37 756.292 1125.59 766.399 1130.29 774.414C1135 782.429 1145.1 785.217 1153.12 780.512L1304.36 693.216C1312.38 688.511 1315.16 678.405 1310.46 670.39C1305.76 662.375 1295.65 659.587 1287.63 664.291Z" fill="#27C7FF"/>
<path d="M615.74 730.943L476.693 811.269C469.375 815.451 466.761 824.86 471.117 832.353C475.299 839.671 484.708 842.285 492.201 838.103L631.248 757.776C638.566 753.594 641.18 744.185 636.823 736.693C632.642 729.375 623.232 726.761 615.74 731.117V730.943Z" fill="#393939"/>
<path d="M1338.12 268.194L1514.63 165.216C1522.64 160.511 1525.43 150.405 1520.73 142.39C1516.02 134.374 1505.91 131.586 1497.9 136.291L1321.39 239.27C1313.37 243.974 1310.59 254.08 1315.29 262.096C1320 270.111 1330.1 272.899 1338.12 268.194Z" fill="#1C93BC"/>
<path d="M2516.25 244.576L1238.2 983.556C1209 999.785 1199.27 1036.57 1216.57 1065.78C1232.79 1095 1269.55 1104.74 1298.75 1087.42L2576.8 348.444C2606 332.215 2615.73 295.428 2598.43 266.215C2582.21 237.002 2545.45 227.265 2516.25 244.576Z" fill="#1C93BC"/>
<path d="M1318.2 27.6505L1112.24 146.66C1107.53 149.273 1105.97 155.198 1108.75 159.902C1111.37 164.607 1117.29 166.175 1122 163.387L1327.95 44.378C1332.48 41.7643 1334.23 35.84 1331.44 31.1354C1328.83 26.4308 1322.9 24.8626 1318.2 27.6505Z" fill="#393939"/>
<path d="M2041.78 236.834L1818.75 363.858C1816.14 365.426 1815.27 368.737 1816.66 371.525C1818.23 374.138 1821.54 375.01 1824.33 373.616L2047.36 246.417C2049.97 244.849 2051.02 241.538 2049.45 238.75C2047.88 236.137 2044.57 235.266 2041.78 236.659V236.834Z" fill="#393939"/>
<path d="M933.345 739.064C933.345 733.662 937.701 729.48 942.928 729.48C948.156 729.48 952.686 733.836 952.686 739.064C952.686 744.291 948.33 748.821 942.928 748.821C937.527 748.821 933.345 744.465 933.345 739.064Z" fill="#393939"/>
<path d="M1769.89 235.447C1769.89 238.932 1766.93 241.894 1763.45 241.894C1759.96 241.894 1757 238.932 1757 235.447C1757 231.962 1759.96 229 1763.45 229C1766.93 229 1769.89 231.962 1769.89 235.447Z" fill="#1C93BC"/>
<path d="M1403.21 608.071C1403.21 611.556 1400.25 614.518 1396.76 614.518C1393.28 614.518 1390.31 611.556 1390.31 608.071C1390.31 604.586 1393.28 601.624 1396.76 601.624C1400.25 601.624 1403.21 604.586 1403.21 608.071Z" fill="#393939"/>
<path d="M1446.89 776.447C1446.89 779.932 1443.93 782.894 1440.45 782.894C1436.96 782.894 1434 779.932 1434 776.447C1434 772.962 1436.96 770 1440.45 770C1443.93 770 1446.89 772.962 1446.89 776.447Z" fill="#393939"/>
<path d="M1791.89 963.447C1791.89 966.932 1788.93 969.894 1785.45 969.894C1781.96 969.894 1779 966.932 1779 963.447C1779 959.962 1781.96 957 1785.45 957C1788.93 957 1791.89 959.962 1791.89 963.447Z" fill="#393939"/>
<path d="M1268.89 347.447C1268.89 350.932 1266.11 353.894 1262.45 353.894C1258.79 353.894 1256 350.932 1256 347.447C1256 343.962 1258.96 341 1262.45 341C1265.93 341 1268.89 343.962 1268.89 347.447Z" fill="#393939"/>
<path d="M1107.34 413.584C1107.34 418.985 1102.98 423.167 1097.58 423.167C1092.18 423.167 1088 418.811 1088 413.584C1088 408.356 1092.36 404 1097.58 404C1102.81 404 1107.34 408.356 1107.34 413.584Z" fill="#393939"/>
<path d="M726.341 665.584C726.341 670.985 721.985 675.167 716.583 675.167C711.182 675.167 707 670.811 707 665.584C707 660.356 711.356 656 716.583 656C721.81 656 726.341 660.356 726.341 665.584Z" fill="#393939"/>
<path d="M1633.34 947.584C1633.34 952.985 1628.98 957.167 1623.58 957.167C1618.18 957.167 1614 952.811 1614 947.584C1614 942.356 1618.36 938 1623.58 938C1628.81 938 1633.34 942.356 1633.34 947.584Z" fill="#393939"/>
<path d="M1612.03 382C1603.18 382 1596 389.177 1596 398.031C1596 406.884 1603.18 414.061 1612.03 414.061C1620.88 414.061 1628.06 406.884 1628.06 398.031C1628.06 389.177 1620.88 382 1612.03 382Z" fill="#1C93BC"/>
<path d="M1851.24 493.031C1851.24 501.917 1843.92 509.061 1835.03 509.061C1826.14 509.061 1819 501.917 1819 493.031C1819 484.144 1826.14 477 1835.03 477C1843.92 477 1851.24 484.144 1851.24 493.031Z" fill="#27C7FF"/>
<path d="M819.576 314.788C819.576 329.076 808.076 340.576 793.788 340.576C779.5 340.576 768 329.076 768 314.788C768 300.5 779.5 289 793.788 289C808.076 289 819.576 300.5 819.576 314.788Z" fill="#1C93BC"/>
<path d="M1068.86 556.659L845.827 683.684C843.214 685.252 842.168 688.563 843.736 691.35C845.305 693.964 848.615 694.835 851.403 693.441L1074.44 566.417C1077.05 564.849 1077.92 561.538 1076.53 558.75C1074.96 556.137 1071.65 555.265 1068.86 556.659Z" fill="#393939"/>
<path d="M996.334 934.84L710.622 1096.72C707.274 1098.72 705.935 1102.94 707.944 1106.49C709.953 1109.83 714.194 1110.94 717.765 1109.16L1003.48 947.276C1006.82 945.277 1007.94 941.058 1006.16 937.505C1004.15 934.174 999.905 933.064 996.334 934.84Z" fill="#393939"/>
</g>
</g>
<defs>
<clipPath id="clip0_299_2546">
<rect width="1920" height="1100" fill="white" transform="translate(0.5)"/>
</clipPath>
</defs>
</svg>
