<svg xmlns="http://www.w3.org/2000/svg" width="885" height="703" viewBox="0 0 885 703" fill="none">
<path d="M880.116 138.142C877.908 138.109 876.091 139.876 876.059 142.087C876.026 144.298 877.791 146.116 880 146.149C882.209 146.181 884.025 144.415 884.058 142.204C884.09 139.992 882.325 138.174 880.116 138.142Z" fill="#FEDD5B"/>
<path d="M866.999 377.002C864.316 376.963 862.11 379.108 862.071 381.793C862.032 384.479 864.175 386.687 866.857 386.726C869.54 386.766 871.746 384.621 871.785 381.935C871.824 379.25 869.682 377.042 866.999 377.002Z" fill="#666AF6"/>
<path d="M468.756 -91.1993L468.902 -91.1971C469.639 -82.2904 478.768 -82.0202 478.768 -82.0202C478.768 -82.0202 468.698 -82.0251 468.548 -71.7473C468.698 -82.0251 458.631 -82.3144 458.631 -82.3144C458.631 -82.3144 467.76 -82.3179 468.756 -91.1993ZM450.065 141.401L450.206 141.403C450.909 150.284 459.672 150.549 459.672 150.549C459.672 150.549 450.003 150.55 449.854 160.796C450.003 150.55 440.339 150.266 440.339 150.266C440.339 150.266 449.104 150.257 450.065 141.401Z" fill="#6061F0"/>
<path d="M815.917 236.252L816.063 236.254C816.8 245.161 825.929 245.431 825.929 245.431C825.929 245.431 815.859 245.426 815.709 255.704C815.859 245.426 805.792 245.137 805.792 245.137C805.792 245.137 814.921 245.134 815.917 236.252Z" fill="#12B76A"/>
<path d="M804.492 582.339L805.982 587.246L779.918 596.714L804.492 582.339Z" fill="white"/>
<path d="M806.963 592.937L804.376 597.452L781.083 596.28L806.963 592.937Z" fill="#1E40AF"/>
<path d="M779.917 596.723L820.586 593.585L808.824 585.669L779.917 596.723V596.723Z" fill="#1E40AF"/>
<path d="M804.492 582.333L779.922 596.715L797.248 576.78L804.492 582.333Z" fill="#1E40AF"/>
<path d="M228.901 219.938C227.299 219.914 226.019 218.595 226.042 216.991C226.066 215.387 227.384 214.106 228.986 214.129C230.588 214.153 231.868 215.472 231.845 217.076C231.822 218.68 230.504 219.961 228.901 219.938Z" fill="#666AF6"/>
<path d="M227 492.977C224.791 492.945 222.974 494.711 222.942 496.922C222.909 499.133 224.674 500.952 226.883 500.984C229.092 501.017 230.909 499.25 230.941 497.039C230.973 494.828 229.208 493.01 227 492.977Z" fill="#EF4444"/>
<path d="M280.904 332.272L280.974 332.273C281.3 337.966 285.614 338.116 285.614 338.116C285.614 338.116 280.854 338.138 280.759 344.709C280.854 338.138 276.097 337.977 276.097 337.977C276.097 337.977 280.412 337.953 280.904 332.272Z" fill="#FECACA"/>
<path d="M269.999 130.071C267.316 130.032 265.11 132.177 265.071 134.862C265.032 137.547 267.175 139.756 269.857 139.795C272.54 139.834 274.746 137.689 274.785 135.004C274.824 132.319 272.682 130.11 269.999 130.071Z" fill="#FEDF89"/>
<circle cx="5" cy="697.931" r="5" fill="#CBD5E1"/>
<path d="M506.61 662.634C503.927 662.595 501.721 664.74 501.681 667.425C501.642 670.11 503.785 672.319 506.468 672.358C509.15 672.397 511.357 670.252 511.396 667.567C511.435 664.882 509.292 662.673 506.61 662.634Z" fill="#FEDD5B"/>
<path d="M338.125 362.633C336.736 362.613 335.627 361.47 335.647 360.08C335.668 358.69 336.81 357.579 338.198 357.6C339.587 357.62 340.696 358.763 340.676 360.153C340.656 361.543 339.514 362.654 338.125 362.633Z" fill="#33A37B"/>
</svg>